<svg xmlns="http://www.w3.org/2000/svg" version="1.1" xmlns:xlink="http://www.w3.org/1999/xlink" xmlns:svgjs="http://svgjs.dev/svgjs" width="2560" height="1080" preserveAspectRatio="none" viewBox="0 0 2560 1080"><g mask="url(&quot;#SvgjsMask4972&quot;)" fill="none"><rect width="2560" height="1080" x="0" y="0" fill="rgba(230, 170, 102, 1)"></rect><path d="M72 1080L1152 0L1441.5 0L361.5 1080z" fill="url(&quot;#SvgjsLinearGradient4973&quot;)"></path><path d="M879.8000000000001 1080L1959.8000000000002 0L2099.3 0L1019.3000000000001 1080z" fill="url(&quot;#SvgjsLinearGradient4973&quot;)"></path><path d="M2546 1080L1466 0L1073 0L2153 1080z" fill="url(&quot;#SvgjsLinearGradient4974&quot;)"></path><path d="M1552.1999999999998 1080L472.1999999999998 0L343.1999999999998 0L1423.1999999999998 1080z" fill="url(&quot;#SvgjsLinearGradient4974&quot;)"></path><path d="M1918.5724091884877 1080L2560 438.57240918848765L2560 1080z" fill="url(&quot;#SvgjsLinearGradient4973&quot;)"></path><path d="M0 1080L641.4275908115123 1080L 0 438.57240918848765z" fill="url(&quot;#SvgjsLinearGradient4974&quot;)"></path></g><defs><mask id="SvgjsMask4972"><rect width="2560" height="1080" fill="#ffffff"></rect></mask><linearGradient x1="0%" y1="100%" x2="100%" y2="0%" id="SvgjsLinearGradient4973"><stop stop-color="rgba(253, 193, 108, 1)" offset="0"></stop><stop stop-opacity="0" stop-color="rgba(253, 193, 108, 1)" offset="0.66"></stop></linearGradient><linearGradient x1="100%" y1="100%" x2="0%" y2="0%" id="SvgjsLinearGradient4974"><stop stop-color="rgba(253, 193, 108, 1)" offset="0"></stop><stop stop-opacity="0" stop-color="rgba(253, 193, 108, 1)" offset="0.66"></stop></linearGradient></defs></svg>